<?xml version="1.0" encoding="UTF-8" standalone="no"?>
<!-- Created with Inkscape (http://www.inkscape.org/) -->
<svg xmlns:inkscape="http://www.inkscape.org/namespaces/inkscape" xmlns:sodipodi="http://sodipodi.sourceforge.net/DTD/sodipodi-0.dtd" xmlns="http://www.w3.org/2000/svg" xmlns:svg="http://www.w3.org/2000/svg" version="1.1" id="svg2" width="724.41528" height="278.8717" viewBox="0 0 724.41529 278.8717" sodipodi:docname="SOWWG29_Hor_CMYK.svg">
  <defs id="defs6"></defs>
  <g id="g8" inkscape:groupmode="layer" inkscape:label="ink_ext_XXXXXX" transform="matrix(1.3333333,0,0,-1.3333333,-85.024696,368.03019)">
    <g id="g10" transform="scale(0.1)">
      <path d="m 1164.24,1444.52 c -2.06,-13.83 -4.22,-29.2 -6.51,-45.38 -1.53,-10.84 -3.11,-22.09 -4.78,-33.66 -2.11,-14.69 -4.05,-27.76 -5.9,-39.95 -1.5,-9.78 -3.01,-19.18 -4.48,-28.22 -259.847,-91.35 -438.972,83.94 -493.984,148.47 -15.918,18.68 -14.215,49.44 3.891,65.27 63.886,55.86 246.878,60.65 246.878,60.65 5.493,0 11.344,0.68 17.547,2 12.512,-8.14 24.289,-15.54 35.047,-22.18 31.078,-19.12 54.711,-32.25 63.401,-37.01 1.63,-0.88 3.26,-1.85 4.99,-2.99 0.02,-0.03 0.05,-0.03 0.08,-0.06 36.44,-23.97 72.2,-42.53 106.33,-55.19 12.62,-4.7 25.13,-8.61 37.49,-11.75" style="fill:#ed1b38;fill-opacity:1;fill-rule:nonzero;stroke:none" id="path12"></path>
      <path d="m 1796.5,1054.77 c -11.78,-61.508 -34.39,-90.899 -34.39,-90.899 -33.12,-98.851 -141.94,-217.043 -207.53,-281.973 -23.24,-23.027 -64.11,-14.699 -75.22,15.293 l -0.52,1.309 c -9.6,25.988 -15.69,53.012 -18.39,80.391 -3.82,38.597 -12.9,83.711 -24.33,129.468 7.55,6.332 14.94,12.86 22.18,19.602 71.07,66.129 126.03,150.459 163.32,250.649 0.73,1.91 11.66,32.63 12.36,34.57 6.63,-6.42 29.96,-23.1 36.96,-29.46 29.57,-26.88 63.2,-53.75 99.88,-79.85 2.88,-2.03 5.94,-3.8 9.18,-5.23 0.06,-0.02 6.64,-2.93 17.91,-8.13 4.03,-1.85 -6.68,-33.26 -1.41,-35.74" style="fill:#ed1b38;fill-opacity:1;fill-rule:nonzero;stroke:none" id="path14"></path>
      <path d="m 2563.85,1219.88 c -0.05,-12.43 -6.74,-24.1 -17.76,-31.3 -45.51,-29.85 -122.71,-33.28 -204.32,-25 -1.61,6.29 -3.33,12.49 -5.11,18.61 -9.3,31.88 -20.63,59.7 -33.63,82.66 -0.35,0.63 -0.72,1.27 -1.12,1.88 -2.87,4.53 -66.32,104.32 -161.85,206.88 27.18,10.09 55.1,22.6 83.36,37.4 0.03,0 0.03,0.03 0.06,0.03 1.98,1.05 3.82,1.95 5.63,2.72 5.79,2.53 18.02,7.91 34.63,15.62 4.45,2.06 9.27,4.33 14.41,6.78 11.56,-12.19 22.24,-25.12 31.91,-38.77 l 41.55,-58.38 c 24.57,-34.52 55.5,-64.82 91.46,-89.52 l 77.11,-52.99 c 1.86,-1.27 3.58,-2.67 5.19,-4.2 31.65,-30.09 38.57,-55.66 38.48,-72.42" style="fill:#ed1b38;fill-opacity:1;fill-rule:nonzero;stroke:none" id="path16"></path>
      <path d="m 1430.31,2366.37 c -1.63,-6.75 -3.18,-13.3 -4.65,-19.56 -11.36,-48.29 -19.13,-85.84 -22.15,-100.9 -23.03,-38.31 -41.54,-85.99 -55.03,-141.78 -6.11,-25.18 -9.79,-46.5 -11.78,-59.83 -10.93,6.21 -22.24,12.12 -33.91,17.74 -15.93,7.68 -32.71,14.89 -49.91,21.47 -24.95,9.51 -50.94,16.58 -77.19,20.97 -7.99,1.32 -16.04,2.42 -24.11,3.26 -33.58,107.22 -109.79,384.57 -37.31,490.7 7.58,11.07 19.8,17.79 32.83,17.85 17.56,0.09 44.35,-6.86 75.88,-38.68 1.58,-1.59 3.07,-3.35 4.4,-5.19 l 55.53,-77.54 c 25.86,-36.12 57.6,-67.24 93.78,-91.93 l 53.62,-36.58" style="fill:#ed1b38;fill-opacity:1;fill-rule:nonzero;stroke:none" id="path18"></path>
      <path d="m 1482.01,2143.07 c 47.97,0 90.99,-15.58 120.97,-40.26 7.22,0.34 14.48,0.57 21.81,0.57 25.13,0 49.61,-2.07 73.21,-5.9 24.54,11 53.12,17.43 83.76,17.43 34.11,0 65.77,-7.84 92,-21.23 5.66,19.38 10.04,37.94 13.2,55.54 5.63,31.74 7.5,60.61 6.77,86.65 -2.84,96.28 -41.67,154.24 -59.7,176.1 -5.76,6.95 -8.06,15.2 -6.65,23.3 38.54,218.2 -3.77,290.56 -35.29,314.56 -14.59,11.15 -37.41,13.56 -55.73,6.12 -93.21,-37.79 -175.52,-252.97 -216.25,-377.78 -13.01,-39.81 -21.76,-70.45 -25.33,-83.18 -1.17,-4.2 -3.36,-8.19 -6.44,-11.82 -28.45,-33.9 -46.28,-74.22 -57.02,-106.17 -6.06,-18.01 -9.81,-33.23 -11.98,-43.3 19.31,6.02 40.46,9.37 62.67,9.37" style="fill:#fbc817;fill-opacity:1;fill-rule:nonzero;stroke:none" id="path20"></path>
      <path d="m 1008.66,1596.01 c 35.35,-25.37 68.02,-43.42 98.09,-55.59 17.17,-6.95 33.39,-11.77 48.91,-15.11 -5.06,17.57 -7.96,36.44 -7.96,56.21 0,60.94 26.27,114.03 65.26,142.68 6.34,38.2 17.68,74.08 33.08,106.55 -5.32,17.96 -8.36,37.32 -8.36,57.62 0,38.48 10.53,73.8 28.05,101.89 l -13.65,8.76 h -0.03 c -8.89,6.05 -17.78,11.6 -26.64,16.75 -14.5,8.46 -28.83,15.77 -42.59,22.1 -20.47,9.43 -41.52,16.3 -62.83,20.63 -40.78,8.21 -82.59,6.98 -123.369,-3.72 l -65.851,-17.36 c -38.926,-10.21 -78.957,-11.81 -118.336,-4.62 l -84.442,15.4 c -2.012,0.37 -4.054,0.53 -6.097,0.49 -40.352,-0.85 -62.122,-17.32 -73.473,-31.78 -8.438,-10.74 -12.199,-26.02 -10.219,-40.93 17.192,-128.83 200.246,-268 300.938,-335.53 30.07,-20.17 52.808,-33.98 61.539,-39.17 2.72,-1.59 5.38,-3.39 7.98,-5.27" style="fill:#26b36f;fill-opacity:1;fill-rule:nonzero;stroke:none" id="path22"></path>
      <path d="m 2077.19,1465.66 c -5.73,-57.12 -69.46,-117.73 -140.92,-127.5 -11.07,-1.51 -21.95,1.81 -32.28,4.9 -17.85,-16.56 -37.59,-30.51 -58.79,-41.44 -17.48,-42.91 -52.55,-74.42 -94.66,-82.42 14.27,-20.05 30.69,-40.57 49.64,-61.51 22.33,-24.64 48.09,-49.83 77.73,-75.49 0,0 5.5,-2.96 15.16,-8.34 49.79,-27.83 210.11,-120.079 294.85,-200.559 18.38,-17.422 38.46,-32.41 59.96,-44.301 l 1.1,-0.582 c 24.82,-13.688 53.55,7.48 52.85,39.031 -1.45,66.629 -7.23,170.201 -27.46,256.381 -6.79,28.95 -15.22,55.94 -25.67,78.89 0,0 -63.84,125.75 -156.63,242.83 -7.29,9.18 -14.88,20.11 -14.88,20.11" style="fill:#258cd4;fill-opacity:1;fill-rule:nonzero;stroke:none" id="path24"></path>
      <path d="m 2093.63,1510.62 c 10.46,2.88 38.01,6.52 49.15,10.97 30.02,11.93 62.64,29.62 97.93,54.48 2.63,1.84 5.25,3.6 7.97,5.16 5.28,3.09 15.64,9.25 29.63,17.98 86.73,54.16 313.06,208.05 332.23,349.24 1.97,14.61 -1.78,29.58 -10.2,40.11 -11.34,14.17 -33.07,30.3 -73.35,31.14 -2.04,0.04 -4.05,-0.12 -6.09,-0.48 l -84.3,-15.09 c -39.31,-7.04 -79.27,-5.48 -118.13,4.53 l -10.11,2.64 -55.6,14.37 c -62.01,16.01 -126.43,10.37 -185.92,-16.57 -13.69,-6.21 -28.01,-13.37 -42.52,-21.66 -17.14,-9.79 -34.49,-21.22 -51.42,-34.27 30.71,-29.64 50.53,-75.71 50.53,-127.59 0,-17.55 -2.33,-34.4 -6.51,-50.23 13.24,-35.11 21.77,-73.46 24.61,-113.84 37.72,-28.42 61.65,-91.15 52.1,-150.89" style="fill:#de1c98;fill-opacity:1;fill-rule:nonzero;stroke:none" id="path26"></path>
      <path d="m 1434.98,1313.34 c -32.07,14.5 -60.88,33.65 -85.24,56.45 -0.68,-0.01 -1.34,-0.09 -2.03,-0.09 -47.4,0 -89.54,19.27 -116.84,49.2 -0.52,-2.18 -1.07,-4.35 -1.51,-6.56 -4.05,-20.14 -8.48,-44.63 -13.56,-71.16 -2.14,-11.22 -4.42,-22.8 -6.82,-34.56 -17.83,-87.31 -43.25,-184.98 -85,-221.2 0,0 -143.656,-130.432 -156.144,-208.658 -3.539,-22.192 16.504,-41.91 42.294,-42.114 70.93,-0.476 254.01,11.512 398.96,135.782 56.78,48.69 107.73,114.64 143.77,203.84 7.35,18.17 14.05,37.35 20.09,57.52 -62.66,0.16 -116.12,33.9 -137.97,81.55" style="fill:#633b9f;fill-opacity:1;fill-rule:nonzero;stroke:none" id="path28"></path>
      <path d="m 1922.59,2069.17 c 21.62,40.84 25.04,78.09 24.44,108.56 -0.08,4.68 -0.21,9.34 -0.42,13.97 3.83,1.18 7.47,2.98 10.8,5.38 49.4,35.64 386.68,235.02 497.03,198.6 16.48,-5.44 27.88,-22.19 27.75,-41.14 -0.24,-40.82 4.57,-128.12 -187.2,-290.18 0,0 -62.47,33.64 -129.74,24.03 -93.7,-7.21 -141.75,-45.65 -141.75,-45.65 0,0 -98.51,24.02 -100.91,26.43" style="fill:#ed1b38;fill-opacity:1;fill-rule:nonzero;stroke:none" id="path30"></path>
      <path d="m 1343.77,1760.52 c 11.85,-5.1 27.66,5.21 35.26,23.03 7.67,17.76 4.22,36.29 -7.65,41.39 -11.9,5.09 -27.65,-5.22 -35.25,-23.01 -5.5,-12.75 -5.24,-25.91 -0.31,-34.2 1.94,-3.23 4.63,-5.76 7.95,-7.21" style="fill:#06486b;fill-opacity:1;fill-rule:nonzero;stroke:none" id="path32"></path>
      <path d="m 1482.74,1949.54 c 12.04,0 21.75,9.72 21.75,21.72 0,12.03 -9.71,21.75 -21.75,21.75 -11.97,0 -21.68,-9.72 -21.68,-21.75 0,-12 9.71,-21.72 21.68,-21.72" style="fill:#06486b;fill-opacity:1;fill-rule:nonzero;stroke:none" id="path34"></path>
      <path d="m 1485.07,1898.7 c -3.39,-27.91 -5.28,-85.28 -0.48,-124.76 0,0 17.93,5.22 17.9,5.64 -2.93,43.71 -2.45,89.2 1.38,126.69 33.83,-12 56.66,-22.5 74.53,-31.16 4.35,4.64 7.96,9.85 12.06,14.67 -19.17,11.8 -73.21,33.47 -73.75,33.66 12.54,3.5 55.14,11.19 97.56,12.12 0.22,0 -0.34,14.58 0,14.56 -39.25,1.17 -93.94,-10.93 -99.32,-12.44 26.68,19.93 53.19,31.74 76.42,42.62 -1.86,1.18 -9.71,7.65 -9.71,7.65 -49.68,-20.3 -87,-51.08 -87.27,-51.34 -6.68,-6.17 -5.88,-9.56 -9.32,-37.91" style="fill:#06486b;fill-opacity:1;fill-rule:nonzero;stroke:none" id="path36"></path>
      <path d="m 1367.28,1848.84 c 38.83,35.21 78.98,51.5 78.4,50.93 -31.05,-29 -49.32,-52.95 -61.87,-70.8 2.18,-3.08 3.86,-6.45 6.13,-9.46 36.18,46.01 37.62,47.81 62.69,71.39 -0.05,-0.58 -8.53,-50.21 -0.82,-127.58 0,0 16.43,6.19 16.49,5.54 -2.12,41.77 -6.83,90.18 3.86,143.53 2.82,15.53 -2.5,17.59 -55.14,25.73 -3.42,-3.94 -5.8,-5.7 -13.63,-13.15 l 45.59,-9.06 c -53.32,-21.76 -86.07,-57.84 -86.07,-57.84 0,0 4.03,-9.61 4.37,-9.23" style="fill:#06486b;fill-opacity:1;fill-rule:nonzero;stroke:none" id="path38"></path>
      <path d="m 1767.43,1949.54 c 11.99,0 21.71,9.72 21.71,21.72 0,12.03 -9.72,21.75 -21.71,21.75 -12,0 -21.71,-9.72 -21.71,-21.75 0,-12 9.71,-21.72 21.71,-21.72" style="fill:#06486b;fill-opacity:1;fill-rule:nonzero;stroke:none" id="path40"></path>
      <path d="m 1635.9,1935.56 c 42.45,-0.93 84.98,-8.62 97.54,-12.12 -0.5,-0.2 -54.54,-21.86 -73.75,-33.67 4.12,-4.81 7.71,-10.02 12.08,-14.66 17.89,8.65 40.68,19.17 74.54,31.16 3.83,-37.48 4.31,-82.98 1.41,-126.69 -0.05,-0.42 17.88,-5.63 17.88,-5.63 4.79,39.47 2.92,96.85 -0.49,124.75 -3.47,28.36 -2.63,31.74 -9.31,37.91 -0.28,0.26 -37.61,31.05 -87.28,51.34 0,0 -7.81,-6.47 -9.72,-7.65 23.28,-10.88 49.75,-22.69 76.42,-42.62 -5.35,1.51 -60.06,13.61 -99.32,12.44 0.37,0.01 -0.2,-14.56 0,-14.56" style="fill:#06486b;fill-opacity:1;fill-rule:nonzero;stroke:none" id="path42"></path>
      <path d="m 1777.98,1912.4 c 10.75,-53.36 6.05,-101.76 3.93,-143.54 0.03,0.66 16.45,-5.54 16.45,-5.54 7.73,77.37 -0.73,126.99 -0.84,127.58 25.11,-23.57 26.52,-25.39 62.73,-71.39 2.27,3.02 3.92,6.39 6.12,9.46 -12.55,17.85 -30.9,41.81 -61.89,70.8 -0.6,0.56 39.6,-15.72 78.38,-50.93 0.42,-0.39 4.42,9.24 4.42,9.24 0,0 -32.78,36.07 -86.06,57.83 l 45.58,9.06 c -7.89,7.45 -10.26,9.21 -13.66,13.15 -52.62,-8.15 -58,-10.22 -55.16,-25.72" style="fill:#06486b;fill-opacity:1;fill-rule:nonzero;stroke:none" id="path44"></path>
      <path d="m 1325.91,1748.86 c -6.68,26.54 3.99,62.46 3.78,61.78 -13.76,-46.73 -28.21,-89.33 -9.28,-195.28 -4.03,24.9 -2.12,79.11 0.8,97.16 2.01,12.36 7.94,23.58 4.7,36.34" style="fill:#06486b;fill-opacity:1;fill-rule:nonzero;stroke:none" id="path46"></path>
      <path d="m 1421.02,1740.78 c -24.12,-5.73 -55.6,-12.54 -80.47,-13.73 -7.14,-0.35 -8.61,-8.44 -9.43,-11.41 -21.04,-76.42 3.43,-181.17 63.62,-244.8 0,0 0.87,1.29 0.79,1.39 -40.77,55.11 -52.74,99.22 -59.16,182.26 0.07,-0.59 13.68,-55.46 47.82,-103.5 -0.42,0.55 7.15,13.99 8.34,15.5 -21.24,34.43 -38.8,74.06 -48.29,106.29 7.22,-24.39 56.31,-60.2 74.34,-69.1 l 2.89,28.42 c -1.88,1.03 -50.94,26.78 -75.89,69.34 0.49,0.04 63.26,8.43 78,14.83 -1.14,7.32 -1.99,24.64 -2.56,24.51" style="fill:#06486b;fill-opacity:1;fill-rule:nonzero;stroke:none" id="path48"></path>
      <path d="m 1914.51,1727.05 c -24.89,1.74 -58.74,8 -82.82,13.73 -0.59,0.14 -1.43,-17.19 -2.58,-24.5 14.75,-6.41 77.5,-14.8 77.95,-14.85 -24.9,-42.55 -73.99,-68.3 -75.79,-69.33 l 2.81,-28.41 c 18.09,8.88 67.15,44.7 74.35,69.09 -9.52,-32.23 -27.07,-71.86 -48.25,-106.29 1.18,-1.51 8.75,-14.94 8.31,-15.5 34.13,48.03 47.77,102.91 47.84,103.5 -6.41,-83.04 -18.44,-127.15 -59.2,-182.26 -0.08,-0.1 0.81,-1.4 0.81,-1.4 60.21,63.63 84.67,168.4 63.64,244.81 -0.83,2.97 -2.31,11.06 -7.07,11.41" style="fill:#06486b;fill-opacity:1;fill-rule:nonzero;stroke:none" id="path50"></path>
      <path d="m 1872.79,1787.53 c 5.91,-18.45 20.64,-30.18 32.9,-26.27 3.48,1.08 6.37,3.35 8.63,6.41 5.73,7.76 6.54,20.66 3,34.06 -5.91,22.23 -20.63,32.71 -32.91,28.8 -12.29,-3.92 -17.5,-24.58 -11.62,-43" style="fill:#06486b;fill-opacity:1;fill-rule:nonzero;stroke:none" id="path52"></path>
      <path d="m 1922.36,1810.64 c -0.23,0.68 10.46,-35.24 3.77,-61.78 -3.21,-12.76 2.74,-23.98 4.73,-36.35 6.2,-39.22 4.84,-72.26 0.8,-97.15 18.93,105.95 4.49,148.54 -9.3,195.28" style="fill:#06486b;fill-opacity:1;fill-rule:nonzero;stroke:none" id="path54"></path>
      <path d="m 1672.01,1692.82 c 0,26.26 -21.28,47.54 -47.53,47.54 -26.3,0 -47.54,-21.28 -47.54,-47.54 0,-26.25 21.24,-47.53 47.54,-47.53 26.25,0 47.53,21.28 47.53,47.53" style="fill:#06486b;fill-opacity:1;fill-rule:nonzero;stroke:none" id="path56"></path>
      <path d="m 1818.25,1625.8 c -58.64,-28.12 -101.9,-34.02 -131.48,-39.19 50.64,39.9 73.53,68.29 94.49,96.33 -3.87,3.16 -5.57,4.66 -18.14,18.54 -10.83,-14.88 -39.67,-54.37 -102.45,-100.22 -12.07,-8.8 -15.67,-11.72 -19.12,-20.06 -1.44,-3.45 -1.41,-10.48 -1.35,-15.65 0.13,-23.53 -3.68,-203.3 -3.77,-204.25 5.96,0.01 25.13,0.95 25.21,1.5 7.43,80.05 8.99,111.47 9.09,147.43 0,13.01 0.62,23.55 0.62,24.7 41.67,-21.28 69.88,-32.47 104.54,-44.64 2.01,2.52 15.22,23.43 15.75,23.18 -32.88,15.02 -66.48,27.61 -98.71,43.7 48.76,9.37 84.7,17.59 128.17,40.27 0.67,0.41 -3.65,27.99 -2.85,28.36" style="fill:#06486b;fill-opacity:1;fill-rule:nonzero;stroke:none" id="path58"></path>
      <path d="m 1612.51,1565.54 c 0.02,5.18 0.05,12.2 -1.34,15.66 -3.46,8.35 -7.1,11.27 -19.12,20.06 -62.82,45.85 -91.65,85.34 -102.48,100.21 -12.59,-13.88 -14.28,-15.37 -18.15,-18.53 20.98,-28.04 43.82,-56.44 94.51,-96.33 -29.62,5.17 -72.88,11.06 -131.45,39.19 0.78,-0.37 -3.59,-27.95 -2.89,-28.37 43.43,-22.67 79.42,-30.88 128.14,-40.25 -32.2,-16.1 -65.79,-28.68 -98.67,-43.71 0.54,0.25 13.68,-20.65 15.7,-23.18 34.7,12.18 62.89,23.37 104.58,44.64 0,-1.15 0.6,-11.68 0.6,-24.71 0.1,-35.95 1.7,-67.37 9.12,-147.42 0.06,-0.55 19.24,-1.48 25.18,-1.5 -0.05,0.95 -3.87,180.72 -3.73,204.24" style="fill:#06486b;fill-opacity:1;fill-rule:nonzero;stroke:none" id="path60"></path>
      <path d="m 1546.08,1385.86 h -4.6 v 8.76 h 7.05 c 3.05,0 6.24,-0.48 6.24,-4.33 0,-5 -5.2,-4.43 -8.69,-4.43 m 11.89,4.38 c 0,4.07 -2.2,6.52 -8.72,6.52 h -10.78 v -24.67 h 3.01 v 11.39 h 5.54 l 7.07,-11.39 h 3.63 l -7.47,11.39 c 4.36,0.1 7.72,1.91 7.72,6.76" style="fill:#06486b;fill-opacity:1;fill-rule:nonzero;stroke:none" id="path62"></path>
      <path d="m 1546.66,1365.23 c -10.79,0 -18.62,8.38 -18.62,19.21 0,10.76 7.83,19.14 18.62,19.14 10.76,0 18.58,-8.38 18.58,-19.14 0,-10.83 -7.82,-19.21 -18.58,-19.21 m 0,41.26 c -12.21,0 -22.14,-9.92 -22.14,-22.05 0,-12.22 9.93,-22.12 22.14,-22.12 12.24,0 22.06,9.9 22.06,22.12 0,12.13 -9.82,22.05 -22.06,22.05" style="fill:#06486b;fill-opacity:1;fill-rule:nonzero;stroke:none" id="path64"></path>
      <path d="m 3026.91,2360.33 c -11.47,4.5 -17.76,6.51 -29.45,6.51 -12.59,0 -27.44,-4.49 -27.44,-20.9 0,-30.13 67.46,-23.16 67.46,-74.88 0,-33.51 -25.86,-46.77 -57.33,-46.77 -11.02,0 -21.82,3.15 -32.16,6.52 l 2.25,20.91 c 7.64,-3.14 21.14,-7.64 32.6,-7.64 12.82,0 30.81,7.19 30.81,25.63 0,35.07 -67.46,25.41 -67.46,74.2 0,27.88 22.04,42.72 50.37,42.72 10.34,0 22.71,-1.8 33.5,-5.62 l -3.15,-20.68" style="fill:#06486b;fill-opacity:1;fill-rule:nonzero;stroke:none" id="path66"></path>
      <path d="m 3085.84,2309.51 h 22.26 c 13.94,0 31.48,6.97 31.48,27.66 0,19.78 -20.69,26.98 -34.63,26.98 h -19.11 z m -22.48,74.43 h 41.14 c 32.15,0 58.91,-11.25 58.91,-47 0,-34.85 -27.21,-47.22 -55.54,-47.22 h -22.03 v -62.73 h -22.48 v 156.95" style="fill:#06486b;fill-opacity:1;fill-rule:nonzero;stroke:none" id="path68"></path>
      <path d="m 3187.49,2383.94 h 87.91 v -19.79 h -65.43 v -45.87 h 59.59 v -19.79 h -59.59 v -51.72 h 65.43 v -19.78 h -87.91 v 156.95" style="fill:#06486b;fill-opacity:1;fill-rule:nonzero;stroke:none" id="path70"></path>
      <path d="m 3416.4,2358.07 c -9.9,5.86 -20.91,8.77 -32.38,8.77 -36.2,0 -60.26,-26.07 -60.26,-61.38 0,-36.87 26.53,-61.38 59.14,-61.38 11.23,0 26.3,2.92 34.17,7.64 l 1.35,-21.8 c -11.92,-4.95 -26.53,-5.63 -35.75,-5.63 -49.69,0 -82.74,31.93 -82.74,81.85 0,48.34 35.07,80.49 82.97,80.49 12.14,0 24.06,-1.8 35.29,-6.74 l -1.79,-21.82" style="fill:#06486b;fill-opacity:1;fill-rule:nonzero;stroke:none" id="path72"></path>
      <path d="m 3442.05,2383.94 h 22.49 v -156.95 h -22.49 v 156.95" style="fill:#06486b;fill-opacity:1;fill-rule:nonzero;stroke:none" id="path74"></path>
      <path d="M 3561.9,2362.79 3530.65,2285 h 62.51 z m -11.01,21.15 h 23.61 l 66.33,-156.95 h -24.52 l -15.96,39.57 h -76.9 l -15.96,-39.57 h -23.61 l 67.01,156.95" style="fill:#06486b;fill-opacity:1;fill-rule:nonzero;stroke:none" id="path76"></path>
      <path d="m 3659.95,2383.94 h 22.49 v -137.17 h 65.65 v -19.78 h -88.14 v 156.95" style="fill:#06486b;fill-opacity:1;fill-rule:nonzero;stroke:none" id="path78"></path>
      <path d="m 3895.84,2244.08 c 36.21,0 51.72,30.13 51.72,61.38 0,31.93 -17.09,61.61 -51.72,61.38 -34.62,0.23 -51.71,-29.45 -51.71,-61.38 0,-31.25 15.51,-61.38 51.71,-61.38 z m 0,142.55 c 47.67,0 75.56,-34.63 75.56,-81.17 0,-47.67 -27.66,-81.17 -75.56,-81.17 -47.89,0 -75.55,33.5 -75.55,81.17 0,46.54 27.88,81.17 75.55,81.17" style="fill:#06486b;fill-opacity:1;fill-rule:nonzero;stroke:none" id="path80"></path>
      <path d="m 3999.74,2383.94 h 22.49 v -137.17 h 65.66 v -19.78 h -88.15 v 156.95" style="fill:#06486b;fill-opacity:1;fill-rule:nonzero;stroke:none" id="path82"></path>
      <path d="m 4141.64,2292.65 -61.39,91.29 h 26.32 l 46.77,-70.38 45.64,70.38 h 26.31 l -61.16,-91.29 v -65.66 h -22.49 v 65.66" style="fill:#06486b;fill-opacity:1;fill-rule:nonzero;stroke:none" id="path84"></path>
      <path d="m 4244.64,2383.94 h 37.1 l 49.24,-130.41 48.34,130.41 h 37.11 v -156.95 h -22.49 v 135.8 h -0.45 l -51.94,-135.8 h -22.03 l -51.94,135.8 h -0.45 v -135.8 h -22.49 v 156.95" style="fill:#06486b;fill-opacity:1;fill-rule:nonzero;stroke:none" id="path86"></path>
      <path d="m 4474.46,2309.51 h 22.25 c 13.95,0 31.49,6.97 31.49,27.66 0,19.78 -20.68,26.98 -34.62,26.98 h -19.12 z m -22.49,74.43 h 41.16 c 32.14,0 58.9,-11.25 58.9,-47 0,-34.85 -27.21,-47.22 -55.54,-47.22 h -22.03 v -62.73 h -22.49 v 156.95" style="fill:#06486b;fill-opacity:1;fill-rule:nonzero;stroke:none" id="path88"></path>
      <path d="m 4574.98,2383.94 h 22.49 v -156.95 h -22.49 v 156.95" style="fill:#06486b;fill-opacity:1;fill-rule:nonzero;stroke:none" id="path90"></path>
      <path d="m 4742.51,2358.07 c -9.91,5.86 -20.92,8.77 -32.38,8.77 -36.21,0 -60.27,-26.07 -60.27,-61.38 0,-36.87 26.54,-61.38 59.15,-61.38 11.24,0 26.3,2.92 34.17,7.64 l 1.35,-21.8 c -11.93,-4.95 -26.54,-5.63 -35.76,-5.63 -49.69,0 -82.74,31.93 -82.74,81.85 0,48.34 35.08,80.49 82.98,80.49 12.13,0 24.06,-1.8 35.29,-6.74 l -1.79,-21.82" style="fill:#06486b;fill-opacity:1;fill-rule:nonzero;stroke:none" id="path92"></path>
      <path d="m 4839.43,2360.33 c -11.47,4.5 -17.77,6.51 -29.45,6.51 -12.6,0 -27.44,-4.49 -27.44,-20.9 0,-30.13 67.46,-23.16 67.46,-74.88 0,-33.51 -25.86,-46.77 -57.34,-46.77 -11.01,0 -21.82,3.15 -32.16,6.52 l 2.26,20.91 c 7.63,-3.14 21.13,-7.64 32.6,-7.64 12.81,0 30.8,7.19 30.8,25.63 0,35.07 -67.45,25.41 -67.45,74.2 0,27.88 22.04,42.72 50.36,42.72 10.35,0 22.71,-1.8 33.5,-5.62 l -3.14,-20.68" style="fill:#06486b;fill-opacity:1;fill-rule:nonzero;stroke:none" id="path94"></path>
      <path d="m 2939.92,2124.57 h 63.23 l 55.92,-240.01 h 0.86 l 51.18,240.01 h 81.73 l 52.9,-240.01 h 0.86 l 56.35,240.01 h 58.49 l -78.28,-300.22 h -77.42 l -54.2,240.01 h -0.86 l -53.33,-240.01 h -77.85 l -79.58,300.22" style="fill:#06486b;fill-opacity:1;fill-rule:nonzero;stroke:none" id="path96"></path>
      <path d="m 3511.62,1866.51 c 61.5,0 84.31,54.62 84.31,108.81 0,52.91 -24.52,107.11 -84.31,107.11 -59.79,0 -84.31,-54.2 -84.31,-107.11 0,-54.19 22.8,-108.81 84.31,-108.81 z m 0,263.23 c 94.2,0 147.11,-63.67 147.11,-154.42 0,-90.76 -52.05,-156.13 -147.11,-156.13 -96.35,0 -147.1,64.08 -147.1,156.13 0,92.04 51.62,154.42 147.1,154.42" style="fill:#06486b;fill-opacity:1;fill-rule:nonzero;stroke:none" id="path98"></path>
      <path d="m 3758.14,1996.4 h 19.78 c 29.68,0 63.66,4.3 63.66,41.72 0,36.13 -33.56,39.14 -63.66,39.14 h -19.78 z m -60.23,128.17 h 64.95 c 64.53,0 141.52,2.15 141.52,-81.29 0,-35.27 -23.67,-64.51 -61.94,-69.68 v -0.86 c 16.34,-1.29 25.81,-17.64 31.82,-30.97 l 48.17,-117.42 h -67.09 l -36.13,93.77 c -8.6,22.37 -16.34,30.97 -41.72,30.97 h -19.35 v -124.74 h -60.23 v 300.22" style="fill:#06486b;fill-opacity:1;fill-rule:nonzero;stroke:none" id="path100"></path>
      <path d="m 3959.47,2124.57 h 60.21 v -252.91 h 116.58 v -47.31 h -176.79 v 300.22" style="fill:#06486b;fill-opacity:1;fill-rule:nonzero;stroke:none" id="path102"></path>
      <path d="m 4224.02,1871.66 h 33.56 c 50.32,0 98.92,37.42 98.92,102.81 0,65.37 -48.6,102.79 -98.92,102.79 h -33.56 z m -60.21,252.91 h 82.16 c 92.04,0 173.33,-30.97 173.33,-150.1 0,-119.15 -81.29,-150.12 -173.33,-150.12 h -82.16 v 300.22" style="fill:#06486b;fill-opacity:1;fill-rule:nonzero;stroke:none" id="path104"></path>
      <path d="m 2939.92,1738.13 h 63.23 l 55.92,-240.01 h 0.86 l 51.18,240.01 h 81.73 l 52.9,-240.01 h 0.86 l 56.35,240.01 h 58.49 l -78.28,-300.22 h -77.42 l -54.2,240.01 h -0.86 l -53.33,-240.01 h -77.85 l -79.58,300.22" style="fill:#06486b;fill-opacity:1;fill-rule:nonzero;stroke:none" id="path106"></path>
      <path d="m 3390.33,1738.13 h 60.22 v -300.22 h -60.22 v 300.22" style="fill:#06486b;fill-opacity:1;fill-rule:nonzero;stroke:none" id="path108"></path>
      <path d="m 3511.22,1738.13 h 73.99 l 114.41,-224.52 h 0.85 v 224.52 h 57.64 v -300.22 h -73.56 l -114.83,224.52 h -0.86 v -224.52 h -57.64 v 300.22" style="fill:#06486b;fill-opacity:1;fill-rule:nonzero;stroke:none" id="path110"></path>
      <path d="m 3874.29,1690.82 h -86.02 v 47.31 h 232.26 v -47.31 h -86.03 v -252.91 h -60.21 v 252.91" style="fill:#06486b;fill-opacity:1;fill-rule:nonzero;stroke:none" id="path112"></path>
      <path d="m 4053.69,1738.13 h 177.21 v -47.31 h -117 v -73.99 H 4221 v -47.31 h -107.1 v -84.3 h 117.85 v -47.31 h -178.06 v 300.22" style="fill:#06486b;fill-opacity:1;fill-rule:nonzero;stroke:none" id="path114"></path>
      <path d="m 4342.76,1609.96 h 19.79 c 29.67,0 63.65,4.3 63.65,41.72 0,36.13 -33.54,39.14 -63.65,39.14 h -19.79 z m -60.21,128.17 h 64.95 c 64.51,0 141.5,2.15 141.5,-81.29 0,-35.27 -23.65,-64.51 -61.93,-69.68 v -0.86 c 16.34,-1.29 25.8,-17.64 31.83,-30.97 l 48.17,-117.42 h -67.1 l -36.13,93.77 c -8.61,22.37 -16.35,30.97 -41.72,30.97 h -19.36 v -124.74 h -60.21 v 300.22" style="fill:#06486b;fill-opacity:1;fill-rule:nonzero;stroke:none" id="path116"></path>
      <path d="m 4894.24,1680.07 c -23.23,10.75 -53.35,15.92 -77.43,15.92 -70.11,0 -108.82,-47.32 -108.82,-108.83 0,-61.07 37.84,-107.09 101.93,-107.09 16.35,0 29.26,1.71 39.57,4.3 v 78.28 h -63.65 v 47.31 h 121.29 v -161.72 c -31.82,-8.62 -64.94,-15.49 -97.21,-15.49 -97.19,0 -164.73,48.61 -164.73,150.11 0,102.8 62.8,160.44 164.73,160.44 34.85,0 62.38,-4.74 88.18,-12.48 l -3.86,-50.75" style="fill:#06486b;fill-opacity:1;fill-rule:nonzero;stroke:none" id="path118"></path>
      <path d="m 5073.63,1677.92 h -0.86 l -43.44,-123.87 h 87.74 z m -33.12,60.21 h 67.96 l 117.85,-300.22 h -66.66 l -25.82,68.81 h -121.71 l -26.24,-68.81 h -62.37 l 116.99,300.22" style="fill:#06486b;fill-opacity:1;fill-rule:nonzero;stroke:none" id="path120"></path>
      <path d="m 5249.16,1738.13 h 96.36 l 71.4,-227.53 h 0.85 l 71.4,227.53 h 96.35 v -300.22 h -57.64 v 247.75 h -0.85 l -80.87,-247.75 h -57.63 l -80.87,247.75 -0.85,-0.86 v -246.89 h -57.65 v 300.22" style="fill:#06486b;fill-opacity:1;fill-rule:nonzero;stroke:none" id="path122"></path>
      <path d="m 5652.25,1738.13 h 177.21 v -47.31 h -117 v -73.99 h 107.11 v -47.31 h -107.11 v -84.3 h 117.86 v -47.31 h -178.07 v 300.22" style="fill:#06486b;fill-opacity:1;fill-rule:nonzero;stroke:none" id="path124"></path>
      <path d="m 6047.57,1683.07 c -18.93,8.18 -40.01,12.92 -61.08,12.92 -20.65,0 -47.32,-9.04 -47.32,-41.72 0,-52.05 131.63,-30.12 131.63,-130.77 0,-65.8 -52.05,-90.75 -112.7,-90.75 -32.68,0 -47.31,4.3 -76.99,11.61 l 5.59,54.2 c 20.65,-11.19 44.3,-18.49 67.96,-18.49 22.79,0 53.34,11.6 53.34,38.71 0,57.2 -131.62,33.54 -131.62,132.9 0,67.1 52.04,91.62 104.95,91.62 25.8,0 49.88,-3.44 71.83,-10.76 l -5.59,-49.47" style="fill:#06486b;fill-opacity:1;fill-rule:nonzero;stroke:none" id="path126"></path>
      <path d="m 3026.91,1316.94 c -11.47,4.5 -17.76,6.52 -29.45,6.52 -12.59,0 -27.44,-4.5 -27.44,-20.91 0,-30.12 67.46,-23.16 67.46,-74.88 0,-33.5 -25.86,-46.77 -57.33,-46.77 -11.02,0 -21.82,3.16 -32.16,6.53 l 2.25,20.91 c 7.64,-3.14 21.14,-7.64 32.6,-7.64 12.82,0 30.81,7.19 30.81,25.63 0,35.07 -67.46,25.4 -67.46,74.19 0,27.89 22.04,42.73 50.37,42.73 10.34,0 22.71,-1.8 33.5,-5.62 l -3.15,-20.69" style="fill:#06486b;fill-opacity:1;fill-rule:nonzero;stroke:none" id="path128"></path>
      <path d="M 3046.26,1340.55 H 3071 l 37.54,-134.45 h 0.45 l 33.51,134.45 h 31.93 l 33.95,-134.45 h 0.45 l 37.55,134.45 h 23.83 l -48.34,-156.94 h -29.01 l -34.17,137.16 h -0.45 l -34.4,-137.16 h -30.13 l -47.45,156.94" style="fill:#06486b;fill-opacity:1;fill-rule:nonzero;stroke:none" id="path130"></path>
      <path d="m 3288.46,1340.55 h 22.49 v -156.94 h -22.49 v 156.94" style="fill:#06486b;fill-opacity:1;fill-rule:nonzero;stroke:none" id="path132"></path>
      <path d="m 3379.98,1320.77 h -48.79 v 19.78 h 120.06 v -19.78 h -48.79 v -137.16 h -22.48 v 137.16" style="fill:#06486b;fill-opacity:1;fill-rule:nonzero;stroke:none" id="path134"></path>
      <path d="m 3458.69,1203.84 81.41,116.93 h -78.71 v 19.78 h 104.56 v -20.23 l -81.17,-116.93 h 82.51 v -19.78 h -108.6 v 20.23" style="fill:#06486b;fill-opacity:1;fill-rule:nonzero;stroke:none" id="path136"></path>
      <path d="m 3595.41,1340.55 h 87.92 v -19.78 h -65.43 v -45.87 h 59.58 v -19.79 h -59.58 v -51.72 h 65.43 v -19.78 h -87.92 v 156.94" style="fill:#06486b;fill-opacity:1;fill-rule:nonzero;stroke:none" id="path138"></path>
      <path d="m 3738.21,1273.1 h 19.11 c 21.37,0 33.95,9.45 33.95,24.51 0,14.16 -10.79,23.16 -31.47,23.16 h -21.59 z m -22.48,67.45 h 38.45 c 31.03,0 60.93,-4.94 60.93,-42.49 0,-19.12 -14.17,-32.61 -32.37,-35.76 v -0.45 c 6.96,-2.69 10.34,-6.07 15.29,-15.74 l 29.67,-62.5 h -25.62 l -24.06,54.41 c -6.98,15.3 -14.39,15.3 -26.32,15.3 h -13.49 v -69.71 h -22.48 v 156.94" style="fill:#06486b;fill-opacity:1;fill-rule:nonzero;stroke:none" id="path140"></path>
      <path d="m 3852,1340.55 h 22.49 v -137.16 h 65.66 v -19.78 H 3852 v 156.94" style="fill:#06486b;fill-opacity:1;fill-rule:nonzero;stroke:none" id="path142"></path>
      <path d="m 4023.13,1319.41 -31.25,-77.79 h 62.51 z m -11.02,21.14 h 23.61 l 66.34,-156.94 h -24.52 l -15.96,39.57 h -76.9 l -15.96,-39.57 h -23.61 l 67,156.94" style="fill:#06486b;fill-opacity:1;fill-rule:nonzero;stroke:none" id="path144"></path>
      <path d="m 4122.3,1340.55 h 30.59 l 69.25,-126.37 h 0.45 v 126.37 h 22.49 v -156.94 h -28.79 l -71.05,129.06 h -0.45 v -129.06 h -22.49 v 156.94" style="fill:#06486b;fill-opacity:1;fill-rule:nonzero;stroke:none" id="path146"></path>
      <path d="m 4303.77,1203.39 h 23.61 c 38.67,0 60.04,18.67 60.04,59.13 0,36.66 -24.95,58.25 -57.34,58.25 h -26.31 z m -22.47,137.16 h 46.31 c 46.54,0 83.65,-28.78 83.65,-77.12 0,-52.61 -31.94,-79.82 -83.65,-79.82 h -46.31 v 156.94" style="fill:#06486b;fill-opacity:1;fill-rule:nonzero;stroke:none" id="path148"></path>
      <path d="m 4494.25,1207.67 28.11,25.18 c 17.31,16.19 45.18,41.6 45.18,67 0,14.62 -13.03,24.96 -30.12,24.96 -13.94,0 -27.44,-5.4 -35.97,-10.12 l -2.26,19.34 c 13.05,5.63 26.99,9.22 41.16,9.22 28.33,0 51.03,-15.29 51.03,-44.74 0,-26.08 -28.11,-53.97 -45.41,-71.28 -8.78,-8.78 -20.01,-18.22 -27.66,-25.18 h 75.32 v -18.44 h -99.38 v 24.06" style="fill:#06486b;fill-opacity:1;fill-rule:nonzero;stroke:none" id="path150"></path>
      <path d="m 4668.3,1199.34 c 26.98,0 29.46,43.17 29.46,62.73 0,19.79 -3.6,62.74 -29.46,62.74 -25.86,0 -29.45,-42.95 -29.45,-62.74 0,-19.56 2.47,-62.73 29.45,-62.73 z m 0,143.91 c 43.4,0 53.29,-46.76 53.29,-81.18 0,-34.4 -9.89,-81.17 -53.29,-81.17 -43.39,0 -53.28,46.77 -53.28,81.17 0,34.42 9.89,81.18 53.28,81.18" style="fill:#06486b;fill-opacity:1;fill-rule:nonzero;stroke:none" id="path152"></path>
      <path d="m 4739.82,1207.67 28.09,25.18 c 17.32,16.19 45.21,41.6 45.21,67 0,14.62 -13.05,24.96 -30.13,24.96 -13.94,0 -27.43,-5.4 -35.98,-10.12 l -2.24,19.34 c 13.03,5.63 26.97,9.22 41.14,9.22 28.33,0 51.04,-15.29 51.04,-44.74 0,-26.08 -28.11,-53.97 -45.43,-71.28 -8.75,-8.78 -20,-18.22 -27.64,-25.18 h 75.31 v -18.44 h -99.37 v 24.06" style="fill:#06486b;fill-opacity:1;fill-rule:nonzero;stroke:none" id="path154"></path>
      <path d="m 4911.62,1260.28 c 18.66,0 29.23,13.94 29.23,31.49 0,14.83 -9.22,33.04 -27.66,33.04 -18.89,0 -27.88,-16.19 -27.88,-33.04 0,-14.63 8.54,-31.49 26.31,-31.49 z m -39.79,-54.41 c 8.08,-4.27 17.75,-6.53 27.87,-6.53 29.22,0 43.39,26.99 43.84,57.12 l -0.45,-0.23 c -10.56,-10.34 -21.35,-14.39 -34.4,-14.39 -30.35,0 -47.22,21.37 -47.22,49.46 0,32.38 21.82,51.95 50.37,51.95 43.85,0 52.84,-39.57 52.84,-75.32 0,-42.5 -13.94,-87.03 -63.63,-87.03 -10.8,0 -26.76,2.48 -32.38,4.95 l 3.16,20.02" style="fill:#06486b;fill-opacity:1;fill-rule:nonzero;stroke:none" id="path156"></path>
    </g>
  </g>
</svg>
