<svg xmlns="http://www.w3.org/2000/svg" width="1600" height="700" viewBox="0 0 1600 700" role="img" aria-label="Winter scene placeholder">
  <defs>
    <linearGradient id="sky" x1="0" x2="0" y1="0" y2="1">
      <stop offset="0" stop-color="#e9f6ff"/>
      <stop offset="1" stop-color="#ffffff"/>
    </linearGradient>
    <linearGradient id="ridge" x1="0" x2="1" y1="0" y2="1">
      <stop offset="0" stop-color="#633b9f" stop-opacity="0.25"/>
      <stop offset="0.6" stop-color="#258cd4" stop-opacity="0.20"/>
      <stop offset="1" stop-color="#ed1b38" stop-opacity="0.14"/>
    </linearGradient>
  </defs>
  <rect width="1600" height="700" fill="url(#sky)"/>
  <path d="M0 520 C 260 410, 420 440, 640 360 C 860 280, 1060 310, 1260 240 C 1440 175, 1520 210, 1600 160 L1600 700 L0 700 Z" fill="url(#ridge)"/>
  <path d="M0 610 C 220 560, 420 600, 620 560 C 820 520, 1040 545, 1220 520 C 1390 495, 1490 520, 1600 500 L1600 700 L0 700 Z" fill="#ffffff" opacity="0.92"/>
  <circle cx="1260" cy="130" r="60" fill="#ffffff" opacity="0.75"/>
  <circle cx="1180" cy="150" r="36" fill="#ffffff" opacity="0.6"/>
  <circle cx="1340" cy="165" r="40" fill="#ffffff" opacity="0.55"/>
</svg>
